<?xml version="1.0" encoding="UTF-8"?>
<svg width="33.4754229px" height="28.5px" viewBox="0 0 33.4754229 28.5" version="1.1" xmlns="http://www.w3.org/2000/svg" xmlns:xlink="http://www.w3.org/1999/xlink">
    <title>Dodo Progress</title>
    <defs>
        <filter x="-5.8%" y="-5.8%" width="111.5%" height="111.5%" filterUnits="objectBoundingBox" id="filter-1">
            <feOffset dx="0" dy="0" in="SourceAlpha" result="shadowOffsetOuter1"></feOffset>
            <feGaussianBlur stdDeviation="0.5" in="shadowOffsetOuter1" result="shadowBlurOuter1"></feGaussianBlur>
            <feColorMatrix values="0 0 0 0 1   0 0 0 0 1   0 0 0 0 1  0 0 0 0.5 0" type="matrix" in="shadowBlurOuter1" result="shadowMatrixOuter1"></feColorMatrix>
            <feMerge>
                <feMergeNode in="shadowMatrixOuter1"></feMergeNode>
                <feMergeNode in="SourceGraphic"></feMergeNode>
            </feMerge>
        </filter>
    </defs>
    <g id="Page-1" stroke="none" stroke-width="1" fill="none" fill-rule="evenodd">
        <g id="Level-Progress-1" transform="translate(-59, -537.5)">
            <g id="Level-Up-Journey" transform="translate(20, 243)">
                <g id="Dodo-Progress" transform="translate(39, 295)">
                    <path d="M14,28 C21.7319865,28 33.4754229,14.1220754 33.4754229,14 C33.4754229,13.8779246 21.7319865,0 14,0 C6.2680135,0 0,6.2680135 0,14 C0,21.7319865 6.2680135,28 14,28 Z" id="Oval" fill="#D2FF40"></path>
                    <g id="Dodo_Avatar-2" filter="url(#filter-1)" transform="translate(1, 0.5)" fill-rule="nonzero">
                        <g id="Group">
                            <g transform="translate(0, 0.9758)" fill="#D2FF40" id="Path">
                                <path d="M13.0026098,0 C11.380144,0.00227980122 9.763591,0.291814557 8.25228542,0.866324465 C6.79774249,1.41917626 5.45081209,2.22622589 4.29072541,3.23731774 C3.13300384,4.24498988 2.16449111,5.45442443 1.44786264,6.78924804 C0.713495847,8.15712878 0.247569088,9.65153848 0.0749160249,11.1812851 C-0.140309026,13.1054373 0.109210126,15.0740457 0.810465376,16.8887675 C0.896791908,17.112188 0.990213771,17.3321888 1.08836585,17.5510497 C1.09546119,17.5670083 1.1214774,17.5761275 1.13803317,17.570428 C1.98947294,17.272914 2.8964928,17.1190274 3.8023301,17.1327062 C4.72708829,17.146385 5.64002092,17.307111 6.53994545,17.5031739 C6.99877688,17.6034851 7.45642575,17.708356 7.91289207,17.8155067 C8.28539697,17.9021391 8.65317164,18.0081499 9.03040676,18.0742641 C9.62050182,18.1779951 10.223605,18.1722955 10.7391991,17.8428643 C11.4510973,17.3880439 11.786943,16.5741549 11.9796995,15.8035821 C11.9619612,15.8138412 11.9430403,15.8229604 11.925302,15.8332195 C11.925302,15.8332195 11.9264845,15.8332195 11.9264845,15.8332195 C11.9489531,15.838919 11.9761518,15.8263801 11.980882,15.8035821 C12.0317319,15.5915606 12.0707562,15.3772592 12.0991376,15.161818 C12.1015027,15.1435796 12.0837644,15.1253412 12.066026,15.1207816 C12.066026,15.1207816 12.0648435,15.1207816 12.0648435,15.1207816 C12.0754865,15.1344604 12.0861295,15.1481392 12.097955,15.161818 C12.1641781,14.6283445 12.1760037,14.060674 12.012811,13.5420193 C11.9525007,13.3482362 11.8626265,13.1578728 11.7242676,13.0051261 C11.6556794,12.9298926 11.6237504,12.9036749 11.5232332,12.8956956 C11.4144381,12.8877163 11.305643,12.8774572 11.1968479,12.8660582 C10.4210917,12.7817056 9.64888314,12.5924821 8.94644534,12.260771 C7.82656554,11.7307172 6.92545845,10.8290558 6.50565135,9.6880153 C6.12723368,8.66096485 6.14851967,7.51536473 6.54467567,6.49629359 C6.95147467,5.44986482 7.75561222,4.57328125 8.79744338,4.07970429 C9.38517333,3.80156854 10.0308485,3.65110166 10.683619,3.61234504 C11.1164342,3.58612732 11.5504319,3.60436573 11.9761518,3.68529868 C12.5059366,3.78447003 13.017983,3.95203542 13.5323945,4.1047821 C14.442962,4.37607845 15.4776979,4.64965459 16.3776224,4.19597415 C16.4946954,4.13669932 16.604673,4.06830528 16.7087378,3.99079204 C16.7666831,3.94747582 16.9972813,3.70011738 17.0682346,3.7206356 C17.1592914,3.74799321 17.1096241,3.95773492 17.1037113,4.02954866 C17.0847904,4.27462729 17.0812427,4.52198573 17.1119892,4.76706436 C17.1994983,5.44872492 17.5720032,6.03349394 18.1940272,6.38002372 C18.2980921,6.43815865 18.4057046,6.48831428 18.5156822,6.5327704 C18.6091041,6.57038712 18.8314245,6.60344424 18.8669011,6.69919589 C18.9212987,6.84168347 18.7202643,6.83826377 18.6292075,6.85764208 C18.5440636,6.87588049 18.4624672,6.9020982 18.3820535,6.93401542 C18.0603985,7.06396409 17.8014189,7.29764371 17.6039322,7.57007996 C17.1983157,8.12863126 17.0303929,8.80915193 16.8530096,9.45775537 C16.7548575,9.81568417 16.6200462,10.1485351 16.4190118,10.4665674 C16.2640971,10.7105061 16.0796185,10.9362065 15.8691236,11.1379689 C15.780432,11.2234614 15.7733367,11.2884358 15.7544158,11.4092652 C15.73786,11.5129962 15.727217,11.6167271 15.7213042,11.7204581 C15.6326126,13.4063711 16.8861211,14.8483454 18.0249218,15.9893859 C18.6102867,16.5752948 19.1566272,17.1817219 19.6154586,17.8679421 C20.2351175,18.7958212 20.6880362,19.8319908 20.8654195,20.9251555 C20.9422856,21.401634 20.9635716,21.8838119 20.9351902,22.36485 C20.9328251,22.4058864 20.983675,22.4161455 21.0108738,22.3956273 C22.7740636,21.0585239 24.1694788,19.2928178 25.0256488,17.2934322 C25.8912792,15.2712485 26.1857354,13.0359034 25.886549,10.8689523 C25.6228391,8.96075871 24.8955677,7.12209902 23.7756879,5.52851797 C22.6735464,3.95887482 21.2048128,2.63545021 19.505481,1.6847731 C17.7683073,0.711297982 15.7993529,0.139067875 13.7901915,0.0227980122 C13.5276643,0.00797930428 13.265137,0 13.0026098,0 C12.9458471,0 12.9458471,0.0854925459 13.0026098,0.0854925459 C15.0283269,0.0889122477 17.0398533,0.547152294 18.8467977,1.43399497 C20.5910667,2.29120023 22.1272059,3.532552 23.307396,5.0383607 C24.4946815,6.55214872 25.3153748,8.32355427 25.6866971,10.1872918 C26.1041391,12.283569 25.9515895,14.4778777 25.2444215,16.5000614 C24.5289756,18.5461829 23.2518159,20.3951017 21.5796828,21.8302366 C21.3762833,22.0046414 21.1669711,22.1733467 20.9529286,22.3352126 C20.9777622,22.3454717 21.0037784,22.3557308 21.0286121,22.3659899 C21.090105,21.3491986 20.9115391,20.3324072 20.5283912,19.38287 C20.0979411,18.315923 19.4297974,17.3903237 18.670597,16.5171599 C18.2519724,16.0361218 17.7623946,15.6132187 17.3414049,15.1321806 C16.7489447,14.4550797 16.2120647,13.6924861 15.9554502,12.8330011 C15.8206389,12.3793206 15.7709716,11.9005624 15.8431074,11.4309233 C15.8502028,11.3830475 15.8525679,11.3249126 15.8703062,11.2793166 C15.8986875,11.2109225 15.9826489,11.1516477 16.0334988,11.0980724 C16.1221905,11.0068803 16.2049693,10.9099888 16.2842005,10.8108174 C16.4627664,10.5828373 16.6141334,10.3354788 16.7347541,10.0744416 C17.0031941,9.49423219 17.0800602,8.84790855 17.3283968,8.25857993 C17.471486,7.91774965 17.6606948,7.58261887 17.9362302,7.32386143 C18.072224,7.19733246 18.2283213,7.0901818 18.4021569,7.01836807 C18.4884835,6.98189125 18.5795402,6.95453363 18.6717795,6.93515532 C18.7450979,6.91919671 18.8527105,6.92831592 18.9130208,6.87930019 C19.0064427,6.80292685 18.9733311,6.62624225 18.8763616,6.56696742 C18.7770269,6.50655269 18.6339378,6.48603448 18.5251427,6.44043846 C18.404522,6.39028283 18.2886316,6.3332878 18.1774714,6.26603366 C17.8392606,6.06427125 17.5637253,5.7781562 17.3958024,5.42934661 C17.1557437,4.93007014 17.1711169,4.39887646 17.2089587,3.86426307 C17.2172366,3.75141291 17.1935855,3.61462484 17.0410359,3.63514305 C16.936971,3.64882186 16.8742956,3.74115381 16.8009772,3.80498824 C16.6909995,3.89959999 16.572744,3.98509254 16.4462106,4.05918608 C15.9885617,4.32364302 15.4611421,4.38747745 14.9372701,4.33276222 C13.8540495,4.21991206 12.8607031,3.7206356 11.7857604,3.56332931 C11.0679494,3.45731855 10.3075664,3.50861408 9.60749371,3.69327798 C8.45805003,3.99535164 7.46470364,4.71120923 6.84859236,5.69494346 C6.2691403,6.62168265 6.03854203,7.73764535 6.19345677,8.80801203 C6.3590145,9.94677274 6.97039555,10.9920616 7.89751885,11.7158985 C8.42730359,12.1296824 9.04104976,12.4340359 9.68790746,12.639218 C10.0734205,12.7611873 10.4695765,12.8489597 10.8704627,12.9070946 C11.0750447,12.936732 11.2808094,12.9595301 11.486574,12.9754887 C11.712442,12.9925872 11.8366103,13.3026401 11.9016508,13.4850242 C12.0932248,14.015078 12.0778516,14.6089662 12.0092634,15.1583983 C12.0068983,15.1766367 12.0246366,15.1948752 12.0423749,15.1994348 C12.0423749,15.1994348 12.0435575,15.1994348 12.0435575,15.1994348 C12.0329145,15.1857559 12.0222715,15.1720771 12.0104459,15.1583983 C11.9832472,15.3670001 11.9442228,15.5733222 11.8945555,15.7773644 C11.9122938,15.7671053 11.9312147,15.7579861 11.9489531,15.7477269 C11.9489531,15.7477269 11.9477705,15.7477269 11.9477705,15.7477269 C11.925302,15.7420274 11.8992857,15.7545664 11.893373,15.7773644 C11.712442,16.5000614 11.4073428,17.2694943 10.7604851,17.7208949 C10.212962,18.1027616 9.56492172,18.0902227 8.92988956,17.9648336 C8.55738467,17.89188 8.19315766,17.788149 7.82420043,17.7037964 C7.38547244,17.604625 6.947927,17.5008941 6.50801646,17.4051424 C5.65539414,17.2204785 4.79094627,17.0722915 3.9158554,17.0460737 C2.965081,17.0187161 2.00721127,17.1714628 1.11319951,17.4849355 C1.12975529,17.4917749 1.14631106,17.4974744 1.16286683,17.5043138 C0.343356061,15.6907319 -0.018505838,13.7038852 0.111575237,11.7295773 C0.212092431,10.1952711 0.611796098,8.68034316 1.28703513,7.28624471 C1.94217073,5.94344179 2.84564292,4.71234913 3.94423673,3.66934007 C5.04283053,2.62519111 6.33418084,1.77254545 7.74260412,1.16497842 C9.20779004,0.532333586 10.7959617,0.169845191 12.3995066,0.0991713532 C12.600541,0.0900521483 12.8015754,0.0866324465 13.0026098,0.0854925459 C13.0593724,0.0854925459 13.0593724,0 13.0026098,0 Z"></path>
                            </g>
                            <path d="M17.6145752,7.44241804 C17.5554474,7.19733941 17.7044493,6.95112088 17.9445081,6.85080963 C18.0710415,6.7972343 18.2094004,6.76531708 18.3241083,6.75733778 C18.5618019,6.74023927 18.7971304,6.8029338 19.0194508,6.88500665 C19.2737001,6.9784785 19.5173065,7.09930796 19.7443571,7.24521524 C19.9430264,7.37174421 20.1334178,7.51993129 20.3592858,7.59060512 C20.5863364,7.66127896 20.866602,7.63620115 21.0179691,7.45837665 C20.8535939,7.71713409 20.66202,7.99526984 20.3604684,8.08190229 C20.1038539,8.15485593 19.827136,8.06822348 19.5835296,7.95993292 C19.3399232,7.85164236 19.098682,7.71941389 18.8314245,7.69661588 C18.6327552,7.67951737 18.4352685,7.7239735 18.2365992,7.7342326 C18.0379299,7.74449171 17.8203398,7.71371439 17.6819808,7.57692632 C17.6488693,7.5415894 17.6264007,7.49371357 17.6145752,7.44241804 Z" id="Path" fill="#8724FF"></path>
                            <g transform="translate(0.6004, 0.7808)" fill="#8724FF" id="Path">
                                <path d="M4.68369152,6.53733001 C4.69551707,6.54074971 4.70734262,6.54074971 4.71916818,6.53960981 C4.74163673,6.53619011 4.76055761,6.5225113 4.77356572,6.50313299 C4.77947849,6.49401378 4.78420871,6.48261478 4.78775638,6.47121577 C5.45944775,6.22157754 6.02470915,5.79981431 6.54976367,5.33245506 C6.86432336,5.05203951 7.16587494,4.75452545 7.46624397,4.4684104 C7.74296189,4.21991206 8.0279577,3.97939303 8.32477906,3.75483261 C8.4241137,3.67959917 8.5246309,3.60664553 8.6275132,3.5359717 C8.69728396,3.48695597 8.76705472,3.43794024 8.83919059,3.39120432 C8.93142989,3.32167038 9.02248665,3.24985664 9.11236084,3.1780429 C9.38316599,2.96032189 9.64924092,2.73690137 9.95315761,2.56477638 C9.97562616,2.54653797 10.0063726,2.52829956 10.0406667,2.51120105 C10.0631352,2.49980204 10.0879689,2.48726313 10.11162,2.47472423 C10.1352711,2.46218532 10.1601048,2.44964641 10.1837559,2.43710751 C10.21805,2.4177292 10.249979,2.39607109 10.2736301,2.37213317 L10.2771777,2.36757357 C10.3067416,2.33679625 10.32448,2.30145933 10.3185672,2.26042291 C10.3162021,2.2387648 10.3067416,2.21596679 10.2901859,2.18974907 C10.2582569,2.14985255 10.1955814,2.12249494 10.1482792,2.15441216 C9.94960995,2.30373914 9.72019423,2.41088979 9.5203424,2.55907687 C9.08397952,2.89534755 8.66417241,3.24985664 8.19588054,3.5450909 C8.04569603,3.66820017 7.89669407,3.79358924 7.75005722,3.9201182 C7.45678353,4.17431604 7.16942261,4.43535328 6.88797446,4.70209002 C6.74725039,4.83545839 6.60770887,4.96996667 6.47053247,5.10675474 C6.36646761,5.19908669 6.26003764,5.28913884 6.15124256,5.37691118 C5.93365239,5.55245588 5.70778435,5.71888137 5.47245586,5.87162805 C5.35538289,5.94800139 5.23476226,6.02095503 5.11295907,6.09048897 C5.02426743,6.13608499 4.93084556,6.17256181 4.8374237,6.21017853 C4.77711338,6.23411644 4.71562051,6.25919426 4.6576753,6.28769177 C4.63638931,6.30365038 4.61983354,6.32416859 4.6103731,6.34810651 C4.5784441,6.41992024 4.5997301,6.51225219 4.68369152,6.53733001 Z"></path>
                                <path d="M0.997666878,10.8051179 C0.841569588,10.711646 0.686654853,10.6033555 0.536470339,10.4779664 C0.673646746,10.6136146 0.829744035,10.7196254 0.997666878,10.8051179 Z"></path>
                                <path d="M15.3952768,4.72032843 C15.7949804,4.4741099 16.1674853,4.18457514 16.4986008,3.85970347 C16.7256514,3.64084255 16.942059,3.34104869 17.1206248,3.00135831 C16.7634932,3.58954703 16.1190006,4.18115544 15.3952768,4.72032843 Z"></path>
                                <path d="M5.32108879,10.6956874 C5.34592245,10.6831485 5.45590008,10.6193141 5.63210081,10.5155831 C5.48073374,10.5999358 5.26432614,10.7105061 4.99825121,10.8233563 C5.10704629,10.7857396 5.21465882,10.7435633 5.32108879,10.6956874 Z"></path>
                                <path d="M17.5096855,0.901661384 C17.4304543,0.546012393 17.253071,0.230259924 16.9432416,0 C16.9432416,0 17.3323022,0.312332768 17.5096855,0.901661384 Z"></path>
                                <path d="M11.4987573,7.01608826 L5.87215952,10.3730956 C6.95183245,9.73247142 9.40918221,8.26313953 11.4987573,7.01608826 Z"></path>
                                <path d="M17.5096855,0.901661384 C17.3323022,0.312332768 16.9432416,0 16.9432416,0 C13.1212231,0.274716047 10.0938817,5.60375141 7.14340639,7.46634901 C4.19884388,9.3255269 0.0327018125,9.22521565 0.0173285946,9.22521565 L0.0161460394,9.22521565 C-0.109204815,10.0117471 0.536470339,10.4779664 0.536470339,10.4779664 C0.687837408,10.6033555 0.841569588,10.711646 0.997666878,10.8051179 C2.42264593,11.6566237 4.03092103,11.2337205 4.99825121,10.8233563 C5.26432614,10.7105061 5.48073374,10.5999358 5.63210081,10.5155831 C5.78583299,10.4300906 5.87215952,10.3730956 5.87215952,10.3730956 L5.87215952,10.3730956 L11.4987573,7.01608826 L11.696244,6.8986785 C11.696244,6.8986785 13.7503424,5.94686149 15.3952768,4.72146833 C16.1190006,4.18229534 16.7634932,3.58954703 17.1206248,3.00249821 L17.1218074,3.00021841 C17.6586875,2.11109593 17.6622351,1.40549745 17.5096855,0.901661384 Z"></path>
                            </g>
                            <path d="M18.6907004,17.5875335 C18.1810191,16.93893 15.2766635,14.7092844 15.8360121,12.2072026 C16.2380809,11.8401546 16.5490929,11.3967333 16.7643179,10.8757987 C17.0398533,10.2055371 17.2527133,8.00438905 18.8385198,7.84366306 C18.9579579,7.83112415 18.9461323,7.60656373 18.8314245,7.57122681 C16.841184,6.97391889 17.1380054,5.25608867 17.1687518,4.79214912 C17.1770297,4.66448025 17.0954334,4.61660443 16.9748128,4.68043886 C15.3724504,6.27288002 13.3006137,4.62572363 11.3458499,4.53909119 C4.95768656,4.25297613 3.91822051,13.4177771 11.6000993,13.9181934 C11.9796995,14.2282464 12.1275189,14.9133267 12.0955899,15.6770601 L12.0955899,15.6770601 C12.0896771,15.8275269 12.076669,15.9814135 12.0565656,16.1353001 L12.0577481,16.1353001 C12.0352796,16.3119847 11.9986204,16.5285658 11.9406752,16.7656651 L11.9394926,16.7656651 C11.7739349,17.4416262 11.4877565,18.0708513 11.1152516,18.4561378 C10.2212399,19.3555193 9.29529913,19.0922023 7.98384538,18.7604912 C6.54349312,18.4378993 5.21903126,18.0799706 3.74793256,18.0640119 C2.8172616,18.0640119 1.93625795,18.2190384 1.12857273,18.5040136 C1.72339801,19.8114796 2.54290878,21.0026757 3.54098539,22.0308661 C3.95369717,21.6980151 4.43026693,21.4289985 4.94940867,21.2409149 C5.84696809,20.9149034 6.72797173,20.9434009 7.47298152,21.0152146 C7.52856162,21.0209141 7.58532427,21.0243338 7.64326948,21.0277535 L7.64090437,21.0300333 C7.07327786,21.7550101 6.95029211,22.7672419 7.32989234,23.6107683 C7.36891666,23.6974008 7.4682513,23.831909 7.56995105,23.8524272 C7.60069749,23.8581268 7.63026137,23.8604066 7.65982525,23.8569869 C7.71185768,23.8512873 7.750882,23.7657948 7.78872377,23.7304579 C8.20380065,23.3554306 8.76433183,23.2494198 9.14866228,23.2026839 C9.39226866,23.1730465 9.64533548,23.1570879 9.89130696,23.1411293 C10.6670632,23.0921135 11.4700182,23.040818 12.1263363,22.5529406 C12.3510218,22.3853752 12.5355005,22.1448561 12.6845024,21.8587411 C12.3829508,23.4386433 11.744371,24.96725 10.704905,25.65575 C10.6445946,25.6956465 10.5831018,25.7321234 10.5216089,25.7686002 C11.3257465,25.9190671 12.1559002,26 13.0049749,26 C16.0133954,26 18.7841223,25.0071466 20.9860401,23.3428917 C21.0983828,21.52703 20.4562554,19.5447428 18.6907004,17.5875335 Z" id="Path" fill="#000000"></path>
                            <path d="M12.2233059,9.36543038 C10.6363168,10.3309262 8.92279423,6.78127569 10.9177649,6.47464243 C12.215028,6.52251825 13.1847233,8.43641138 12.2233059,9.36543038 Z" id="Path" fill="#FFFFFF"></path>
                            <path d="M11.0620366,7.02521442 C10.234248,7.13920448 11.0029089,8.83195689 11.529146,8.83195689 C12.5414132,8.89123172 12.0624784,6.95796028 11.0620366,7.02521442 Z" id="Path" fill="#000000"></path>
                            <path d="M7.74378667,8.24718788 C10.694262,6.38459028 13.7216033,1.05441502 17.5436218,0.780838871 C16.9275106,0.385293359 15.8147261,0.751201455 15.1690509,0.988300782 C14.4949945,1.27099613 13.8292159,1.5730698 13.1598896,1.86602425 C12.4846506,2.14985951 11.7999511,2.42457555 11.2027607,2.85089838 C11.1814747,2.86571709 11.1613713,2.8805358 11.1400853,2.89535451 C11.1282597,2.8828156 11.1164342,2.87141659 11.1046086,2.86001759 C10.8834708,2.56706313 10.6008401,2.3231244 10.3938929,2.01877093 C10.212962,1.75317409 10.0142927,1.49897626 9.79906766,1.25959713 C9.5046114,0.856072311 9.14629717,0.514102128 8.70993429,0.254204788 C7.41267121,-0.517507926 6.1899091,0.590475469 6.49500835,1.93327839 C5.33137401,1.10571055 4.09796891,2.01763103 3.96907039,3.2544232 C3.90639496,4.03411522 4.19375588,4.78302992 4.41962393,5.51940571 C4.58281655,5.98676496 4.80040671,6.4324661 4.98725044,6.89184605 C5.04401309,7.02749422 5.11141874,7.16086259 5.17172905,7.29537087 C4.94231334,7.38770282 4.70934996,7.47205546 4.47402147,7.5472889 C3.89811707,7.71941389 3.32576034,7.9280157 2.76049895,8.13547762 C2.23544442,8.31786171 1.71512012,8.53558273 1.28348747,8.88325242 C0.861315251,9.17392707 0.644907644,9.58315139 0.617708874,10.0071944 C0.633082092,10.0060545 4.79922416,10.1063658 7.74378667,8.24718788 Z M5.20957082,7.12894538 C5.22021382,7.10500746 5.23558704,7.08334935 5.25687303,7.06853064 C5.31481824,7.04003313 5.37631111,7.01495532 5.43662142,6.9910174 C5.53004329,6.95340068 5.62346515,6.91806376 5.71215679,6.87132784 C5.83395998,6.8017939 5.95458061,6.72884026 6.07165358,6.65246692 C6.30698207,6.49972024 6.53285012,6.33329475 6.75044028,6.15775006 C6.85923536,6.06997771 6.96566533,5.97992556 7.06973019,5.88759361 C7.20808915,5.75194544 7.34763067,5.61629726 7.48717219,5.48292889 C7.76862033,5.21619215 8.0547987,4.95515491 8.34925495,4.70095707 C8.4958918,4.57442811 8.64489375,4.44903904 8.79507827,4.32592977 C9.26337014,4.02955561 9.68317724,3.67618642 10.1195401,3.33991574 C10.319392,3.19172866 10.5488077,3.08457801 10.7474769,2.93525103 C10.7947792,2.90333381 10.8574546,2.92955152 10.8893836,2.97058795 C10.9059393,2.99566576 10.9142172,3.01960367 10.9177649,3.04126178 C10.9236777,3.08229821 10.9059393,3.11763512 10.8763755,3.14841244 L10.8728278,3.15297204 C10.8491767,3.17690996 10.8172477,3.19856807 10.7829536,3.21794638 C10.7604851,3.23162519 10.7356514,3.24416409 10.7108177,3.2555631 C10.6871666,3.26810201 10.662333,3.27950101 10.6398644,3.29203992 C10.6055703,3.31027833 10.5748239,3.32737684 10.5523553,3.34561525 C10.2472561,3.51888014 9.98118116,3.74230066 9.71155857,3.95888178 C9.62168437,4.03183541 9.53062762,4.10364915 9.43838831,4.17204319 C9.36625244,4.21877912 9.29766424,4.26779484 9.22671093,4.31681057 C9.12382862,4.38748441 9.02331143,4.46043804 8.92397679,4.53567149 C8.62715543,4.76023191 8.34215962,5.00075093 8.06544169,5.24924927 C7.76507267,5.53536432 7.46470364,5.83287838 7.14896139,6.11329393 C6.62390687,6.58065318 6.05864547,7.00241641 5.3869541,7.25205464 C5.38458899,7.26345365 5.37985877,7.27485265 5.37276344,7.28397186 C5.35975533,7.30335017 5.34083445,7.31702898 5.3183659,7.32044868 C5.3077229,7.32272848 5.29589735,7.32158858 5.28288924,7.31816888 C5.20011038,7.29309106 5.17882438,7.20075911 5.20957082,7.12894538 Z" id="Shape" fill="#DBBFFF"></path>
                            <path d="M17.3106585,7.67951737 C17.1829425,7.45951655 16.9003118,7.37402401 16.6531578,7.45495695 C16.5218941,7.49827317 16.3965433,7.56324751 16.3066691,7.63164155 C16.1198253,7.77298922 15.9885617,7.97247183 15.8809492,8.17765394 C15.7579634,8.41247346 15.6621765,8.6598319 15.5959534,8.91402973 C15.5380082,9.13631035 15.5001664,9.36885008 15.3819109,9.56833268 C15.2636554,9.76781529 15.0389699,9.93082108 14.8024588,9.89776396 C15.105193,9.98211661 15.4410386,10.0641895 15.7248519,9.93196098 C15.9660932,9.81911082 16.1091823,9.57631199 16.2144298,9.33807276 C16.3196772,9.09983353 16.4048212,8.8456357 16.5857521,8.6552723 C16.7205634,8.51392462 16.8979467,8.41817297 17.0516789,8.2973435 C17.2065936,8.17651404 17.3449526,8.01236835 17.3520479,7.82086505 C17.354413,7.77526902 17.3378572,7.7262533 17.3106585,7.67951737 Z" id="Path" fill="#8724FF"></path>
                            <path d="M17.9705243,4.26437514 C19.196834,3.76737847 20.6312735,3.83349271 21.8173764,4.42738093 C21.9628307,4.50033457 21.9947597,4.68613837 21.8776867,4.79670873 C21.3739182,5.27318718 20.4834541,6.51795865 20.0660121,6.91008446 C19.4581787,7.48231457 18.7273596,7.13008528 18.5121346,7.02635432 C17.5660904,6.57039408 17.5164231,5.61629726 17.4525651,5.11246119 C17.4064454,4.7499728 17.6216705,4.40572282 17.9705243,4.26437514 Z" id="Path" fill="#000000"></path>
                            <path d="M21.1137561,21.7299323 C20.6596549,19.3213223 19.2547793,17.5339582 17.064687,15.8423457 C15.394919,16.4065965 13.6352768,16.7234888 11.8673567,16.7782041 L11.7491012,16.9286709 C11.9796995,17.6103315 11.2228641,18.1620434 10.5890145,18.5370707 C9.95516495,18.912098 9.66780403,18.9953107 8.93343723,18.8790409 C8.19907043,18.762771 7.40557588,18.4926146 6.6865823,18.3090906 C5.23322192,17.937483 2.7853326,17.9568613 1.00913465,18.2338571 C2.94616012,22.7843404 7.5924196,25.9965803 13.0026098,25.9965803 C16.123373,25.9965803 18.9898869,24.9273535 21.2296465,23.1491086 C21.2379244,22.7273453 21.2083605,22.2314886 21.1137561,21.7299323 Z" id="Path" fill="#FF6C5C"></path>
                            <path d="M12.1381619,15.7021379 C13.597435,15.8320865 14.9431829,15.436541 16.1150951,14.588455 C16.1730403,14.5462787 16.2558192,14.5588176 16.2960261,14.6158126 L17.3094759,16.0463879 C17.3508653,16.1045228 17.333127,16.1854557 17.2704516,16.2219326 C15.3156878,17.3378953 12.5993584,17.39831 11.8898253,17.0700186 C11.8330626,17.0438009 11.8046813,16.9822463 11.8236022,16.9252512 C11.9276671,16.5980998 11.9796995,16.0555071 11.9986204,15.8127082 C12.0045332,15.7443142 12.0672086,15.6952985 12.1381619,15.7021379 Z" id="Path" fill="#DB4130"></path>
                            <path d="M12.6904152,21.9009174 C12.5414132,22.1858926 12.3569346,22.4275515 12.1322491,22.5951169 C11.475931,23.0829943 10.6741585,23.1342899 9.89721974,23.1833056 C9.65243081,23.1992642 9.39818143,23.2152228 9.15457506,23.2448602 C8.76906205,23.2915961 8.20971343,23.3987468 7.79463655,23.7726342 C7.75561222,23.8079711 7.7165879,23.8934637 7.66573803,23.8991632 C7.6373567,23.9025829 7.60661027,23.901443 7.57586383,23.8946036 C7.47416408,23.8740854 7.37482944,23.7395771 7.33580512,23.6529446 C6.95620489,22.8105581 7.07919063,21.7971864 7.64681714,21.0722097 L7.64918225,21.0699299 C7.59123705,21.0665102 7.5344744,21.0619506 7.4788943,21.0573909 C6.73506706,20.9867171 5.85288086,20.9582196 4.95532145,21.2830913 C4.4361797,21.4711749 3.9607925,21.7413313 3.54689817,22.0730424 C5.37512855,23.9572981 7.79818421,25.2966813 10.5263391,25.8084967 C10.587832,25.7720199 10.6493249,25.7355431 10.7096352,25.6956465 C11.7502838,25.0094264 12.3888636,23.4796797 12.6904152,21.9009174 Z" id="Path" fill="#FFFFFF"></path>
                            <path d="M15.9556862,15.2043478 C16.0692115,15.213467 16.1626334,15.2647626 16.2123007,15.3570945 C16.2383169,15.4596856 16.2477773,15.5497377 16.357755,15.603313 C16.5398685,15.7127435 16.6439334,15.9008271 16.5824405,16.1151284 C16.5824405,16.1151284 16.5611545,16.1242476 16.5611545,16.1242476 C16.4547245,16.0683925 16.3908665,16.0034182 16.3388341,15.9304645 C16.2927144,15.8506715 16.2631506,15.7674587 16.2501425,15.672847 C16.2430471,15.6238313 16.2264914,15.5793751 16.1921973,15.5474579 C16.1590857,15.5155407 16.0999579,15.5018619 16.0597511,15.4767841 C16.0195442,15.4517063 15.9970756,15.4129496 15.9757896,15.3719132 C15.9568688,15.328597 15.9391304,15.2841409 15.9391304,15.2203064 L15.9556862,15.2043478 L15.9556862,15.2043478 Z" id="Path" fill="#FF6C5C"></path>
                            <path d="M15.6349777,15.368147 C15.73786,15.4000642 15.812361,15.4638986 15.8348295,15.5596503 C15.8324644,15.6599616 15.8159087,15.7397546 15.9105131,15.8104284 C16.059515,15.941517 16.1174602,16.1261809 16.0193081,16.3154044 C16.0193081,16.3154044 15.9968396,16.3211039 15.9968396,16.3211039 C15.9022352,16.2561296 15.8525679,16.1854557 15.8170912,16.1102223 C15.7887099,16.0281495 15.7792494,15.9460766 15.7898924,15.8571644 C15.7946227,15.8104284 15.7898924,15.7671122 15.7650588,15.7317753 C15.7414077,15.6964384 15.6881927,15.6725005 15.6562637,15.6417231 C15.6243347,15.6109458 15.6136917,15.5699094 15.6054138,15.5277331 C15.599501,15.4844169 15.5959534,15.4388208 15.6148743,15.3806859 L15.6349777,15.368147 L15.6349777,15.368147 Z" id="Path" fill="#FF6C5C"></path>
                            <path d="M16.3823526,14.9760212 C16.4840524,14.9942596 16.562101,15.0409955 16.5952125,15.1287679 C16.604673,15.2245195 16.5963951,15.299753 16.70046,15.3510485 C16.8660177,15.4456602 16.9523442,15.6006867 16.9003118,15.7967496 C16.9003118,15.7967496 16.8790258,15.8070087 16.8790258,15.8070087 C16.7737784,15.769392 16.7099204,15.7135369 16.6614356,15.6508423 C16.6176811,15.5801685 16.59403,15.5026553 16.5904823,15.4160228 C16.5881172,15.3715667 16.5774742,15.3305303 16.5479103,15.3008929 C16.519529,15.2712554 16.4651315,15.2575766 16.4308374,15.2324988 C16.3953607,15.207421 16.38117,15.1698043 16.3681619,15.1299078 C16.3575189,15.0888713 16.3504236,15.0455551 16.3634317,14.9874202 L16.3823526,14.9760212 L16.3823526,14.9760212 Z" id="Path" fill="#FF6C5C"></path>
                            <path d="M15.2199008,15.5664897 C15.3085925,15.6098059 15.3677202,15.6702207 15.3724504,15.7591329 C15.352347,15.8480452 15.3227831,15.9152993 15.4091097,15.9848332 C15.5427384,16.1068026 15.5864929,16.2595493 15.4966187,16.4328142 C15.4966187,16.4328142 15.4741502,16.4396536 15.4741502,16.4396536 C15.341704,16.3644201 15.2790286,16.274368 15.2754809,16.1432794 C15.2601077,16.0703258 15.3192355,15.9745741 15.2766635,15.9061801 C15.2589251,15.8719831 15.2104404,15.8469053 15.1844242,15.814988 C15.1584079,15.7830708 15.1560428,15.7443142 15.1560428,15.7044177 C15.1584079,15.6747803 15.1690509,15.5733291 15.2199008,15.5664897 L15.2199008,15.5664897 Z" id="Path" fill="#FF6C5C"></path>
                            <path d="M14.7622519,15.7363349 C14.8592215,15.7682521 14.9278097,15.8298067 14.9420003,15.9221387 C14.9313573,16.0156105 14.9065237,16.0897041 14.9940328,16.1603779 C15.1312092,16.2891867 15.1714161,16.4670112 15.0578907,16.6357165 C15.0578907,16.6357165 15.0342396,16.6391362 15.0342396,16.6391362 C14.9124365,16.5433845 14.860404,16.4533324 14.8592215,16.3211039 C14.8450308,16.2481503 14.902976,16.1489789 14.8568564,16.079445 C14.8367529,16.045248 14.7870856,16.02131 14.7575217,15.9916726 C14.7291404,15.9620352 14.7220451,15.9232786 14.7173148,15.8833821 C14.7161323,15.8423457 14.7161323,15.8001693 14.7397834,15.7454541 C14.7409659,15.746594 14.7622519,15.7363349 14.7622519,15.7363349 L14.7622519,15.7363349 Z" id="Path" fill="#FF6C5C"></path>
                            <path d="M14.3306193,15.8434856 C14.4169458,15.9095998 14.4666131,15.9905327 14.4618829,16.0897041 C14.4311365,16.1865956 14.3968424,16.2641089 14.4737085,16.3553009 C14.5931465,16.5160269 14.6215279,16.6972711 14.5115502,16.8830749 C14.5115502,16.8830749 14.4878991,16.8864946 14.4878991,16.8864946 C14.3625483,16.7759243 14.3116984,16.6596544 14.3223414,16.5126072 C14.3140635,16.4259748 14.3838343,16.3268034 14.3495402,16.2413109 C14.3353495,16.1991345 14.2904124,16.1615178 14.2667613,16.1216213 C14.2442928,16.0805849 14.2466579,16.0361288 14.2502055,15.9905327 C14.2584834,15.9449367 14.2691264,15.8982008 14.3069682,15.8480452 L14.3306193,15.8434856 L14.3306193,15.8434856 Z" id="Path" fill="#FF6C5C"></path>
                            <path d="M13.8020171,15.9323978 C13.8753355,15.998512 13.9143598,16.0726056 13.8942564,16.1603779 C13.8493193,16.2424508 13.8020171,16.2994458 13.8658751,16.3906378 C13.9604795,16.5445244 13.9592969,16.7063903 13.8233031,16.8511577 C13.8233031,16.8511577 13.799652,16.8511577 13.799652,16.8511577 C13.693222,16.7417272 13.6589279,16.6368564 13.6920395,16.5080476 C13.6967697,16.4328142 13.7807311,16.3553009 13.7606277,16.2766478 C13.7523498,16.2390311 13.7133255,16.2014143 13.6979522,16.1626577 C13.682579,16.125041 13.6908569,16.0862844 13.7014999,16.0475278 C13.7121429,16.0224499 13.7499847,15.9255584 13.8020171,15.9323978 L13.8020171,15.9323978 Z" id="Path" fill="#FF6C5C"></path>
                            <path d="M13.2805102,15.952916 C13.3597414,16.02131 13.4023134,16.102243 13.3881228,16.1979946 C13.3762972,16.2413109 13.3420031,16.285767 13.3384554,16.3279433 C13.3337252,16.3701196 13.350281,16.4111561 13.3751147,16.4510526 C13.4259645,16.5274259 13.4519808,16.6106387 13.4578935,16.6972711 C13.4543459,16.7816238 13.4330599,16.8682562 13.3644717,16.9571684 C13.3644717,16.9571684 13.3408206,16.9594483 13.3408206,16.9594483 C13.2580417,16.881935 13.2237476,16.7998622 13.2060093,16.7166494 C13.1977314,16.630017 13.2095569,16.5445244 13.2462161,16.4601718 C13.265137,16.4168556 13.2745975,16.3735393 13.2627719,16.3325029 C13.2521289,16.2914665 13.2107395,16.2527099 13.1918186,16.2116734 C13.1728977,16.170637 13.179993,16.1284607 13.1882709,16.0851445 C13.2000965,16.0418283 13.2166523,15.998512 13.2580417,15.952916 L13.2805102,15.952916 L13.2805102,15.952916 Z" id="Path" fill="#FF6C5C"></path>
                            <path d="M12.8748938,16.0304293 C12.9411169,16.0988233 12.9742284,16.1740567 12.9446646,16.2561296 C12.8926321,16.3302231 12.8394171,16.3792388 12.8938147,16.4727107 C12.9730459,16.6277372 12.9564901,16.7816238 12.8074882,16.9070128 C12.8074882,16.9070128 12.783837,16.9058729 12.783837,16.9058729 C12.6880501,16.7918829 12.664399,16.6904317 12.7093361,16.5696022 C12.7211616,16.4989284 12.8122184,16.4316743 12.7992103,16.3553009 C12.79448,16.3188241 12.7601859,16.2789276 12.7471778,16.2413109 C12.7353523,16.2036941 12.7471778,16.1683572 12.7625511,16.1318804 C12.7767417,16.1068026 12.8228614,16.0190302 12.8748938,16.0304293 L12.8748938,16.0304293 Z" id="Path" fill="#FF6C5C"></path>
                            <path d="M12.3415614,15.9540559 C12.4101496,16.0292894 12.440896,16.1159218 12.4077845,16.204834 C12.3522044,16.285767 12.2954417,16.3393423 12.3403788,16.4453531 C12.4018717,16.6231776 12.3604823,16.7998622 12.183099,16.9127123 C12.183099,16.9127123 12.1606304,16.9070128 12.1606304,16.9070128 C12.108598,16.8101213 12.1003201,16.7280484 12.1074155,16.6493953 C12.1239712,16.5684623 12.1570828,16.4943688 12.2126629,16.4271147 C12.2410442,16.3906378 12.2599651,16.3530211 12.2564174,16.3119847 C12.2552349,16.2709483 12.2221233,16.2276321 12.2114803,16.1865956 C12.2008373,16.1455592 12.2138454,16.1079425 12.2292186,16.0691859 C12.2481395,16.0304293 12.2694255,15.9928125 12.3179103,15.9551958 C12.3179103,15.952916 12.3415614,15.9540559 12.3415614,15.9540559 L12.3415614,15.9540559 Z" id="Path" fill="#FF6C5C"></path>
                            <path d="M10.2945583,8.68490971 C10.2945583,8.68490971 9.23025859,7.08904885 10.6339516,6.40510849 C11.5421541,5.96282705 12.4231577,7.43101904 12.4231577,7.43101904 L10.2945583,8.68490971 Z" id="Path" fill="#8724FF"></path>
                        </g>
                        <path d="M11,23.4942126 C10.8790731,23.6526471 10.729354,23.7869996 10.5470039,23.8801591 C10.0143496,24.151399 9.36364757,24.1799172 8.73310004,24.2071679 C8.53443438,24.2160402 8.32809082,24.2249126 8.1303849,24.2413898 C7.81751047,24.267373 7.36355464,24.3269444 7.02668678,24.5348105 C6.99501544,24.5544564 6.96334411,24.6019867 6.92207539,24.6051554 C6.89904169,24.6070566 6.87408852,24.6064229 6.84913534,24.6026205 C6.76659792,24.5912132 6.68597997,24.5164321 6.65430863,24.468268 C6.3462329,23.9999356 6.4460456,23.4365424 6.90671959,23.033485 C6.86161193,23.0303163 6.81554453,23.0277814 6.77043687,23.0252464 C6.16676199,22.9859547 5.45079782,22.9701112 4.72235706,23.1507266 C4.3010323,23.2552933 4.33590812,22.9077566 4,23.0921744 C5.48375416,24.1397434 7.02956599,24.7154516 9.24368039,25 C9.29358674,24.9797204 9.34349309,24.9594408 9.3924397,24.9372599 C10.2370087,24.5557496 10.7552669,24.3725735 11,23.4942126 Z" id="Path" fill="#FFFFFF"></path>
                    </g>
                </g>
            </g>
        </g>
    </g>
</svg>