<?xml version="1.0" encoding="UTF-8"?>
<svg width="7px" height="10px" viewBox="0 0 7 10" version="1.1" xmlns="http://www.w3.org/2000/svg" xmlns:xlink="http://www.w3.org/1999/xlink">
    <title>7C5B2124-7CB3-4827-869A-9D6CAAC7CE79@1.5x</title>
    <g id="Login,-Play,-Me,-Contest,-Learn" stroke="none" stroke-width="1" fill="none" fill-rule="evenodd">
        <g id="4A-Explore" transform="translate(-98.000000, -442.000000)" fill="#8724FF" fill-rule="nonzero">
            <g id="Group-9" transform="translate(20.000000, 299.000000)">
                <g id="Group-13" transform="translate(0.000000, 30.000000)">
                    <g id="Group-2" transform="translate(15.000000, 108.000000)">
                        <path d="M69.416691,7.22222222 L68.7738844,7.22222222 C68.6863881,6.80888889 68.4927295,6.43555556 68.2349069,6.11111111 L69.416691,6.11111111 C69.7386776,6.11111111 70,5.86222222 70,5.55555556 C70,5.24888889 69.7386776,5 69.416691,5 L65.9168368,5 L63.5836007,5 C63.2616141,5 63.0002917,5.24888889 63.0002917,5.55555556 C63.0002917,5.86222222 63.2616141,6.11111111 63.5836007,6.11111111 L65.9168368,6.11111111 C66.6763052,6.11111111 67.3179451,6.57666667 67.559435,7.22222222 L63.5836007,7.22222222 C63.2616141,7.22222222 63.0002917,7.47111111 63.0002917,7.77777778 C63.0002917,8.08444444 63.2616141,8.33333333 63.5836007,8.33333333 L67.559435,8.33333333 C67.3179451,8.97888889 66.6763052,9.44444444 65.9168368,9.44444444 L63.5836007,9.44444444 C63.5077705,9.44444444 63.4319403,9.45888889 63.3607766,9.48666667 C63.2184492,9.54333333 63.1041207,9.65111111 63.0446231,9.78777778 C62.9851256,9.92333333 62.9851256,10.0766667 63.0446231,10.2122222 C63.0737886,10.2811111 63.1169535,10.3422222 63.1717845,10.3933333 L67.8370901,14.8366667 C67.9514187,14.9455556 68.1007458,15 68.2500729,15 C68.3994,15 68.5487271,14.9455556 68.6630557,14.8377778 C68.8905462,14.6211111 68.8905462,14.2688889 68.6630557,14.0522222 L64.9917087,10.5555556 L65.9168368,10.5555556 C67.3261114,10.5555556 68.503229,9.6 68.7738844,8.33333333 L69.416691,8.33333333 C69.7386776,8.33333333 70,8.08444444 70,7.77777778 C70,7.47111111 69.7386776,7.22222222 69.416691,7.22222222 Z" id="Path"></path>
                    </g>
                </g>
            </g>
        </g>
    </g>
</svg>